<svg width="210" height="164" viewBox="0 0 210 164" fill="none" xmlns="http://www.w3.org/2000/svg">
<path d="M4.64 158.192C3.488 158.192 2.544 157.877 1.808 157.248C1.08267 156.619 0.709333 155.856 0.688 154.96H2.176C2.24 155.547 2.512 156 2.992 156.32C3.48267 156.64 4.02667 156.8 4.624 156.8C5.24267 156.8 5.75467 156.645 6.16 156.336C6.56533 156.027 6.768 155.616 6.768 155.104C6.768 154.24 6.22933 153.605 5.152 153.2L3.584 152.624C2.688 152.315 2.02667 151.904 1.6 151.392C1.184 150.88 0.970667 150.224 0.96 149.424C0.96 148.517 1.28 147.797 1.92 147.264C2.57067 146.72 3.40267 146.448 4.416 146.448C5.48267 146.448 6.32533 146.757 6.944 147.376C7.57333 147.984 7.92533 148.699 8 149.52H6.528C6.38933 148.955 6.12267 148.533 5.728 148.256C5.344 147.979 4.896 147.84 4.384 147.84C3.82933 147.84 3.36533 147.979 2.992 148.256C2.62933 148.533 2.448 148.907 2.448 149.376C2.448 149.845 2.576 150.219 2.832 150.496C3.088 150.773 3.504 151.013 4.08 151.216L5.536 151.744C6.432 152.064 7.10933 152.491 7.568 153.024C8.02667 153.547 8.256 154.224 8.256 155.056C8.256 156.005 7.92 156.768 7.248 157.344C6.576 157.909 5.70667 158.192 4.64 158.192ZM13.6084 149.84C14.7604 149.84 15.7097 150.235 16.4564 151.024C17.203 151.813 17.5764 152.805 17.5764 154C17.5764 155.259 17.2244 156.267 16.5204 157.024C15.827 157.781 14.8564 158.16 13.6084 158.16C12.3497 158.16 11.3577 157.723 10.6324 156.848C9.90704 155.973 9.58704 154.901 9.67238 153.632H16.1844C16.1417 152.907 15.875 152.304 15.3844 151.824C14.8937 151.333 14.3017 151.088 13.6084 151.088C12.4777 151.088 11.683 151.536 11.2244 152.432H9.80038C10.003 151.685 10.435 151.067 11.0964 150.576C11.7684 150.085 12.6057 149.84 13.6084 149.84ZM13.6564 156.944C14.275 156.944 14.8084 156.763 15.2564 156.4C15.715 156.027 16.003 155.467 16.1204 154.72H11.1124C11.2404 155.435 11.5337 155.984 11.9924 156.368C12.4617 156.752 13.0164 156.944 13.6564 156.944ZM23.7536 158.16C23.167 158.16 22.6176 158.032 22.1056 157.776C21.6043 157.509 21.215 157.173 20.9376 156.768V158H19.5616V146H20.9376V151.232C21.215 150.827 21.6043 150.496 22.1056 150.24C22.6176 149.973 23.167 149.84 23.7536 149.84C24.863 149.84 25.791 150.245 26.5376 151.056C27.295 151.867 27.6736 152.848 27.6736 154C27.6736 155.152 27.295 156.133 26.5376 156.944C25.791 157.755 24.863 158.16 23.7536 158.16ZM21.5936 156.064C22.1056 156.619 22.7563 156.896 23.5456 156.896C24.335 156.896 24.9856 156.619 25.4976 156.064C26.0096 155.509 26.2656 154.821 26.2656 154C26.2656 153.179 26.0096 152.491 25.4976 151.936C24.9856 151.381 24.335 151.104 23.5456 151.104C22.7563 151.104 22.1056 151.381 21.5936 151.936C21.0816 152.491 20.8256 153.179 20.8256 154C20.8256 154.821 21.0816 155.509 21.5936 156.064ZM32.9678 149.84C34.1198 149.84 35.0691 150.235 35.8158 151.024C36.5624 151.813 36.9358 152.805 36.9358 154C36.9358 155.259 36.5838 156.267 35.8798 157.024C35.1864 157.781 34.2158 158.16 32.9678 158.16C31.7091 158.16 30.7171 157.723 29.9918 156.848C29.2664 155.973 28.9464 154.901 29.0318 153.632H35.5438C35.5011 152.907 35.2344 152.304 34.7438 151.824C34.2531 151.333 33.6611 151.088 32.9678 151.088C31.8371 151.088 31.0424 151.536 30.5838 152.432H29.1598C29.3624 151.685 29.7944 151.067 30.4557 150.576C31.1278 150.085 31.9651 149.84 32.9678 149.84ZM33.0158 156.944C33.6344 156.944 34.1678 156.763 34.6158 156.4C35.0744 156.027 35.3624 155.467 35.4798 154.72H30.4718C30.5998 155.435 30.8931 155.984 31.3518 156.368C31.8211 156.752 32.3758 156.944 33.0158 156.944ZM41.8844 158.08C41.1484 158.08 40.5564 157.872 40.1084 157.456C39.6604 157.04 39.4364 156.432 39.4364 155.632V151.264H37.7404V150H39.4364V147.776H40.8124V150H43.1164V151.264H40.8124V155.456C40.8124 155.957 40.919 156.309 41.1324 156.512C41.3457 156.715 41.6817 156.816 42.1404 156.816C42.5457 156.816 42.871 156.763 43.1164 156.656V157.888C42.7324 158.016 42.3217 158.08 41.8844 158.08ZM46.2661 147.584C46.0848 147.765 45.8555 147.856 45.5781 147.856C45.3008 147.856 45.0661 147.765 44.8741 147.584C44.6821 147.392 44.5861 147.157 44.5861 146.88C44.5861 146.613 44.6821 146.384 44.8741 146.192C45.0661 146 45.3008 145.904 45.5781 145.904C45.8555 145.904 46.0848 146 46.2661 146.192C46.4475 146.384 46.5381 146.613 46.5381 146.88C46.5381 147.157 46.4475 147.392 46.2661 147.584ZM44.8741 158V150H46.2501V158H44.8741ZM48.8585 158V150H50.2345V151.232C50.7785 150.304 51.6265 149.84 52.7785 149.84C53.6852 149.84 54.4158 150.133 54.9705 150.72C55.5252 151.307 55.8025 152.091 55.8025 153.072V158H54.4425V153.28C54.4425 152.608 54.2718 152.08 53.9305 151.696C53.5892 151.301 53.1305 151.104 52.5545 151.104C51.8932 151.104 51.3385 151.365 50.8905 151.888C50.4532 152.411 50.2345 153.125 50.2345 154.032V158H48.8585ZM59.6724 147.584C59.491 147.765 59.2617 147.856 58.9844 147.856C58.707 147.856 58.4724 147.765 58.2804 147.584C58.0884 147.392 57.9924 147.157 57.9924 146.88C57.9924 146.613 58.0884 146.384 58.2804 146.192C58.4724 146 58.707 145.904 58.9844 145.904C59.2617 145.904 59.491 146 59.6724 146.192C59.8537 146.384 59.9444 146.613 59.9444 146.88C59.9444 147.157 59.8537 147.392 59.6724 147.584ZM58.2804 158V150H59.6564V158H58.2804ZM61.6088 158V156.912L66.1848 151.264H61.6728V150H67.9608V151.104L63.3848 156.736H68.1048V158H61.6088ZM75.2501 158H73.8741V146H75.2501V151.232C75.7941 150.304 76.6421 149.84 77.7941 149.84C78.7008 149.84 79.4315 150.133 79.9861 150.72C80.5408 151.307 80.8181 152.091 80.8181 153.072V158H79.4581V153.28C79.4581 152.608 79.2875 152.08 78.9461 151.696C78.6048 151.301 78.1461 151.104 77.5701 151.104C76.9088 151.104 76.3541 151.365 75.9061 151.888C75.4688 152.411 75.2501 153.125 75.2501 154.032V158ZM86.592 158.16C85.4827 158.16 84.5493 157.755 83.792 156.944C83.0453 156.133 82.672 155.152 82.672 154C82.672 152.848 83.0453 151.867 83.792 151.056C84.5493 150.245 85.4827 149.84 86.592 149.84C87.1787 149.84 87.7227 149.973 88.224 150.24C88.736 150.496 89.1307 150.827 89.408 151.232V150H90.784V158H89.408V156.768C89.1307 157.173 88.736 157.509 88.224 157.776C87.7227 158.032 87.1787 158.16 86.592 158.16ZM86.8 156.896C87.5893 156.896 88.24 156.619 88.752 156.064C89.264 155.509 89.52 154.821 89.52 154C89.52 153.179 89.264 152.491 88.752 151.936C88.24 151.381 87.5893 151.104 86.8 151.104C86 151.104 85.344 151.381 84.832 151.936C84.32 152.491 84.064 153.179 84.064 154C84.064 154.821 84.32 155.509 84.832 156.064C85.344 156.619 86 156.896 86.8 156.896ZM93.3741 158V146H94.7501V158H93.3741ZM98.7345 158H97.3585V146H98.7345V151.232C99.2785 150.304 100.127 149.84 101.279 149.84C102.185 149.84 102.916 150.133 103.471 150.72C104.025 151.307 104.303 152.091 104.303 153.072V158H102.943V153.28C102.943 152.608 102.772 152.08 102.431 151.696C102.089 151.301 101.631 151.104 101.055 151.104C100.393 151.104 99.8385 151.365 99.3905 151.888C98.9532 152.411 98.7345 153.125 98.7345 154.032V158ZM110.076 158.16C108.967 158.16 108.034 157.755 107.276 156.944C106.53 156.133 106.156 155.152 106.156 154C106.156 152.848 106.53 151.867 107.276 151.056C108.034 150.245 108.967 149.84 110.076 149.84C110.663 149.84 111.207 149.973 111.708 150.24C112.22 150.496 112.615 150.827 112.892 151.232V150H114.268V158H112.892V156.768C112.615 157.173 112.22 157.509 111.708 157.776C111.207 158.032 110.663 158.16 110.076 158.16ZM110.284 156.896C111.074 156.896 111.724 156.619 112.236 156.064C112.748 155.509 113.004 154.821 113.004 154C113.004 153.179 112.748 152.491 112.236 151.936C111.724 151.381 111.074 151.104 110.284 151.104C109.484 151.104 108.828 151.381 108.316 151.936C107.804 152.491 107.548 153.179 107.548 154C107.548 154.821 107.804 155.509 108.316 156.064C108.828 156.619 109.484 156.896 110.284 156.896ZM116.203 158V156.912L120.779 151.264H116.267V150H122.555V151.104L117.979 156.736H122.699V158H116.203ZM124.609 158V150H125.985V158H124.609ZM128.593 158V150H129.969V151.552C130.118 151.061 130.406 150.667 130.833 150.368C131.27 150.069 131.729 149.92 132.209 149.92C132.444 149.92 132.652 149.941 132.833 149.984V151.408C132.641 151.323 132.39 151.28 132.081 151.28C131.526 151.28 131.036 151.52 130.609 152C130.182 152.48 129.969 153.157 129.969 154.032V158H128.593ZM137.483 158.16C136.373 158.16 135.44 157.755 134.683 156.944C133.936 156.133 133.563 155.152 133.563 154C133.563 152.848 133.936 151.867 134.683 151.056C135.44 150.245 136.373 149.84 137.483 149.84C138.069 149.84 138.613 149.973 139.115 150.24C139.627 150.496 140.021 150.827 140.299 151.232V146H141.675V158H140.299V156.768C140.021 157.173 139.627 157.509 139.115 157.776C138.613 158.032 138.069 158.16 137.483 158.16ZM137.691 156.896C138.48 156.896 139.131 156.619 139.643 156.064C140.155 155.509 140.411 154.821 140.411 154C140.411 153.179 140.155 152.491 139.643 151.936C139.131 151.381 138.48 151.104 137.691 151.104C136.891 151.104 136.235 151.381 135.723 151.936C135.211 152.491 134.955 153.179 134.955 154C134.955 154.821 135.211 155.509 135.723 156.064C136.235 156.619 136.891 156.896 137.691 156.896ZM147.561 158.16C146.451 158.16 145.518 157.755 144.761 156.944C144.014 156.133 143.641 155.152 143.641 154C143.641 152.848 144.014 151.867 144.761 151.056C145.518 150.245 146.451 149.84 147.561 149.84C148.147 149.84 148.691 149.973 149.193 150.24C149.705 150.496 150.099 150.827 150.377 151.232V150H151.753V158H150.377V156.768C150.099 157.173 149.705 157.509 149.193 157.776C148.691 158.032 148.147 158.16 147.561 158.16ZM147.769 156.896C148.558 156.896 149.209 156.619 149.721 156.064C150.233 155.509 150.489 154.821 150.489 154C150.489 153.179 150.233 152.491 149.721 151.936C149.209 151.381 148.558 151.104 147.769 151.104C146.969 151.104 146.313 151.381 145.801 151.936C145.289 152.491 145.033 153.179 145.033 154C145.033 154.821 145.289 155.509 145.801 156.064C146.313 156.619 146.969 156.896 147.769 156.896ZM162.394 158.16C161.808 158.16 161.258 158.032 160.746 157.776C160.245 157.509 159.856 157.173 159.578 156.768V158H158.202V146H159.578V151.232C159.856 150.827 160.245 150.496 160.746 150.24C161.258 149.973 161.808 149.84 162.394 149.84C163.504 149.84 164.432 150.245 165.178 151.056C165.936 151.867 166.314 152.848 166.314 154C166.314 155.152 165.936 156.133 165.178 156.944C164.432 157.755 163.504 158.16 162.394 158.16ZM160.234 156.064C160.746 156.619 161.397 156.896 162.186 156.896C162.976 156.896 163.626 156.619 164.138 156.064C164.65 155.509 164.906 154.821 164.906 154C164.906 153.179 164.65 152.491 164.138 151.936C163.626 151.381 162.976 151.104 162.186 151.104C161.397 151.104 160.746 151.381 160.234 151.936C159.722 152.491 159.466 153.179 159.466 154C159.466 154.821 159.722 155.509 160.234 156.064ZM171.832 158.16C170.627 158.16 169.624 157.76 168.824 156.96C168.035 156.149 167.64 155.163 167.64 154C167.64 152.837 168.035 151.856 168.824 151.056C169.624 150.245 170.627 149.84 171.832 149.84C173.027 149.84 174.019 150.245 174.808 151.056C175.608 151.856 176.008 152.837 176.008 154C176.008 155.163 175.608 156.149 174.808 156.96C174.019 157.76 173.027 158.16 171.832 158.16ZM169.816 156.048C170.339 156.603 171.011 156.88 171.832 156.88C172.654 156.88 173.32 156.603 173.832 156.048C174.344 155.493 174.6 154.811 174.6 154C174.6 153.189 174.344 152.507 173.832 151.952C173.32 151.397 172.654 151.12 171.832 151.12C171.011 151.12 170.339 151.397 169.816 151.952C169.304 152.507 169.048 153.189 169.048 154C169.048 154.811 169.304 155.493 169.816 156.048ZM180.56 158.16C179.664 158.16 178.912 157.941 178.304 157.504C177.706 157.067 177.376 156.459 177.312 155.68H178.72C178.805 156.128 179.018 156.459 179.36 156.672C179.712 156.885 180.117 156.992 180.576 156.992C181.034 156.992 181.402 156.901 181.68 156.72C181.968 156.539 182.112 156.277 182.112 155.936C182.112 155.616 182.005 155.355 181.792 155.152C181.589 154.949 181.253 154.784 180.784 154.656L179.632 154.352C178.256 153.989 177.568 153.205 177.568 152C177.568 151.349 177.824 150.827 178.336 150.432C178.858 150.037 179.525 149.84 180.336 149.84C181.157 149.84 181.829 150.059 182.352 150.496C182.885 150.923 183.184 151.467 183.248 152.128H181.872C181.765 151.776 181.573 151.499 181.296 151.296C181.029 151.093 180.709 150.992 180.336 150.992C179.941 150.992 179.61 151.083 179.344 151.264C179.088 151.445 178.96 151.685 178.96 151.984C178.96 152.272 179.056 152.507 179.248 152.688C179.44 152.869 179.749 153.019 180.176 153.136L181.456 153.472C182.821 153.813 183.504 154.603 183.504 155.84C183.504 156.608 183.232 157.189 182.688 157.584C182.144 157.968 181.434 158.16 180.56 158.16ZM178.784 161.264V160.384C179.104 160.565 179.509 160.656 180 160.656C180.309 160.656 180.565 160.597 180.768 160.48C180.981 160.373 181.088 160.213 181.088 160C181.088 159.68 180.837 159.52 180.336 159.52C180.09 159.52 179.856 159.573 179.632 159.68L179.104 159.344L179.952 157.952H180.816L180.272 158.848C180.432 158.773 180.645 158.736 180.911 158.736C181.296 158.736 181.605 158.843 181.84 159.056C182.085 159.28 182.208 159.579 182.208 159.952C182.208 160.411 182.005 160.784 181.6 161.072C181.205 161.36 180.714 161.504 180.128 161.504C179.562 161.504 179.114 161.424 178.784 161.264ZM188.748 158.16C187.639 158.16 186.706 157.755 185.948 156.944C185.202 156.133 184.828 155.152 184.828 154C184.828 152.848 185.202 151.867 185.948 151.056C186.706 150.245 187.639 149.84 188.748 149.84C189.335 149.84 189.879 149.973 190.38 150.24C190.892 150.496 191.287 150.827 191.564 151.232V146H192.94V158H191.564V156.768C191.287 157.173 190.892 157.509 190.38 157.776C189.879 158.032 189.335 158.16 188.748 158.16ZM188.956 156.896C189.746 156.896 190.396 156.619 190.908 156.064C191.42 155.509 191.676 154.821 191.676 154C191.676 153.179 191.42 152.491 190.908 151.936C190.396 151.381 189.746 151.104 188.956 151.104C188.156 151.104 187.5 151.381 186.988 151.936C186.476 152.491 186.22 153.179 186.22 154C186.22 154.821 186.476 155.509 186.988 156.064C187.5 156.619 188.156 156.896 188.956 156.896ZM198.362 158.16C197.488 158.16 196.778 157.867 196.234 157.28C195.69 156.683 195.418 155.893 195.418 154.912V150H196.794V154.704C196.794 155.376 196.954 155.909 197.274 156.304C197.605 156.699 198.048 156.896 198.602 156.896C199.242 156.896 199.77 156.635 200.186 156.112C200.613 155.579 200.826 154.864 200.826 153.968V150H202.202V158H200.826V156.768C200.304 157.696 199.482 158.16 198.362 158.16ZM204.796 158V150H206.172V151.552C206.321 151.061 206.609 150.667 207.036 150.368C207.473 150.069 207.932 149.92 208.412 149.92C208.647 149.92 208.855 149.941 209.036 149.984V151.408C208.844 151.323 208.593 151.28 208.284 151.28C207.729 151.28 207.239 151.52 206.812 152C206.385 152.48 206.172 153.157 206.172 154.032V158H204.796Z" fill="#BDBDBD"/>
<path d="M63.334 8.33334H70.584C75.084 8.33334 78.6257 12.2083 78.2507 16.6667L74.7923 58.1666C74.209 64.9583 79.584 70.7916 86.4173 70.7916H130.792C136.792 70.7916 142.042 65.875 142.501 59.9167L144.751 28.6667C145.251 21.75 140.001 16.125 133.042 16.125H79.2507" stroke="#BDBDBD" stroke-width="2" stroke-miterlimit="10" stroke-linecap="round" stroke-linejoin="round"/>
<path d="M122.708 91.6667C125.585 91.6667 127.917 89.3348 127.917 86.4583C127.917 83.5819 125.585 81.25 122.708 81.25C119.832 81.25 117.5 83.5819 117.5 86.4583C117.5 89.3348 119.832 91.6667 122.708 91.6667Z" stroke="#BDBDBD" stroke-width="2" stroke-miterlimit="10" stroke-linecap="round" stroke-linejoin="round"/>
<path d="M89.3744 91.6667C92.2508 91.6667 94.5827 89.3348 94.5827 86.4583C94.5827 83.5819 92.2508 81.25 89.3744 81.25C86.4979 81.25 84.166 83.5819 84.166 86.4583C84.166 89.3348 86.4979 91.6667 89.3744 91.6667Z" stroke="#BDBDBD" stroke-width="1.5" stroke-miterlimit="10" stroke-linecap="round" stroke-linejoin="round"/>
<path d="M92.5 33.3333H142.5" stroke="#BDBDBD" stroke-width="1.5" stroke-miterlimit="10" stroke-linecap="round" stroke-linejoin="round"/>
</svg>
