<svg width="22" height="17" viewBox="0 0 22 17" fill="none" xmlns="http://www.w3.org/2000/svg">
<path fill-rule="evenodd" clip-rule="evenodd" d="M6.21956 2C5.35556 2 4.54556 2.334 3.93956 2.941C2.68156 4.201 2.68156 6.252 3.94056 7.514L10.9996 14.585L18.0596 7.514C19.3186 6.252 19.3186 4.201 18.0596 2.941C16.8476 1.726 14.7116 1.728 13.4996 2.941L11.7076 4.736C11.3316 5.113 10.6676 5.113 10.2916 4.736L8.49956 2.94C7.89356 2.334 7.08456 2 6.21956 2ZM10.9996 17C10.7346 17 10.4796 16.895 10.2926 16.706L2.52456 8.926C0.488559 6.886 0.488559 3.567 2.52456 1.527C3.50856 0.543 4.82056 0 6.21956 0C7.61856 0 8.93156 0.543 9.91456 1.527L10.9996 2.614L12.0846 1.528C13.0686 0.543 14.3806 0 15.7806 0C17.1786 0 18.4916 0.543 19.4746 1.527C21.5116 3.567 21.5116 6.886 19.4756 8.926L11.7076 16.707C11.5196 16.895 11.2656 17 10.9996 17Z" fill="#333333"/>
</svg>
